<?xml version="1.0" encoding="UTF-8" standalone="no"?>
<!-- http://code.google.com/p/vector-playing-cards/ -->

<svg
   xmlns:dc="http://purl.org/dc/elements/1.1/"
   xmlns:cc="http://creativecommons.org/ns#"
   xmlns:rdf="http://www.w3.org/1999/02/22-rdf-syntax-ns#"
   xmlns:svg="http://www.w3.org/2000/svg"
   xmlns="http://www.w3.org/2000/svg"
   xmlns:sodipodi="http://sodipodi.sourceforge.net/DTD/sodipodi-0.dtd"
   xmlns:inkscape="http://www.inkscape.org/namespaces/inkscape"
   width="167.0869141pt"
   height="242.6669922pt"
   viewBox="0 0 167.0869141 242.6669922"
   xml:space="preserve"
   id="svg2"
   version="1.1"
   inkscape:version="0.92.4 5da689c313, 2019-01-14"
   sodipodi:docname="ace_of_clubs.svg"
   inkscape:export-filename="/home/byron/art/cards/final/PNGs/A_of_clubs.png"
   inkscape:export-xdpi="215.44792"
   inkscape:export-ydpi="215.44792"><metadata
   id="metadata43"><rdf:RDF><cc:Work
       rdf:about=""><dc:format>image/svg+xml</dc:format><dc:type
         rdf:resource="http://purl.org/dc/dcmitype/StillImage" /><dc:title /></cc:Work></rdf:RDF></metadata><defs
   id="defs41"><linearGradient
     id="linearGradient2984"><stop
       style="stop-color:#000000;stop-opacity:1;"
       offset="0"
       id="stop2986" /><stop
       style="stop-color:#000000;stop-opacity:0.65648854;"
       offset="1"
       id="stop2988" /></linearGradient><linearGradient
     id="linearGradient3784"><stop
       style="stop-color:#ffffff;stop-opacity:0.53435117;"
       offset="0"
       id="stop3786" /><stop
       style="stop-color:#000000;stop-opacity:0;"
       offset="1"
       id="stop3788" /></linearGradient><filter
     color-interpolation-filters="sRGB"
     inkscape:collect="always"
     id="filter3834"
     x="-0.13934441"
     width="1.2786888"
     y="-0.16242018"
     height="1.3248404"><feGaussianBlur
       inkscape:collect="always"
       stdDeviation="9.5105772"
       id="feGaussianBlur3836" /></filter><linearGradient
     id="linearGradient3784-4"><stop
       style="stop-color:#ffffff;stop-opacity:0.51908398;"
       offset="0"
       id="stop3786-8" /><stop
       style="stop-color:#000000;stop-opacity:0;"
       offset="1"
       id="stop3788-6" /></linearGradient><filter
     color-interpolation-filters="sRGB"
     inkscape:collect="always"
     id="filter3834-6"
     x="-0.13934441"
     width="1.2786888"
     y="-0.16242018"
     height="1.3248404"><feGaussianBlur
       inkscape:collect="always"
       stdDeviation="9.5105772"
       id="feGaussianBlur3836-6" /></filter><linearGradient
     id="linearGradient3784-3"><stop
       style="stop-color:#ffffff;stop-opacity:0.70229006;"
       offset="0"
       id="stop3786-86" /><stop
       style="stop-color:#000000;stop-opacity:0;"
       offset="1"
       id="stop3788-2" /></linearGradient><filter
     color-interpolation-filters="sRGB"
     inkscape:collect="always"
     id="filter3834-7"
     x="-0.13934441"
     width="1.2786888"
     y="-0.16242018"
     height="1.3248404"><feGaussianBlur
       inkscape:collect="always"
       stdDeviation="9.5105772"
       id="feGaussianBlur3836-0" /></filter></defs><sodipodi:namedview
   pagecolor="#ffffff"
   bordercolor="#666666"
   borderopacity="1"
   objecttolerance="10"
   gridtolerance="10"
   guidetolerance="10"
   inkscape:pageopacity="0"
   inkscape:pageshadow="2"
   inkscape:window-width="2560"
   inkscape:window-height="1353"
   id="namedview39"
   showgrid="false"
   inkscape:zoom="2.4336873"
   inkscape:cx="43.462469"
   inkscape:cy="148.16686"
   inkscape:window-x="0"
   inkscape:window-y="58"
   inkscape:window-maximized="1"
   inkscape:current-layer="svg2" />
	<g
   id="Layer_x0020_1"
   style="fill-rule:nonzero;clip-rule:nonzero;stroke:#000000;stroke-miterlimit:4;">
		<path
   style="fill:#FFFFFF;stroke-width:0.5;"
   d="M166.8369141,235.5478516c0,3.7773438-3.0869141,6.8691406-6.8710938,6.8691406H7.1108398c-3.7749023,0-6.8608398-3.0917969-6.8608398-6.8691406V7.1201172C0.25,3.3427734,3.3359375,0.25,7.1108398,0.25h152.8549805    c3.7841797,0,6.8710938,3.0927734,6.8710938,6.8701172v228.4277344z"
   id="path5" />
		<g
   style="stroke:none;"
   id="g7">
			<g
   id="g9">
				
			</g>
			
		</g>
		<g
   id="g15">
			
		</g>
		<g
   id="g19">
			
		</g>
		<g
   style="stroke:none;"
   id="g23">
			<g
   id="g25">
				
			</g>
			
		</g>
		<g
   style="stroke:none;"
   id="g31">
			<g
   id="g33">
				
			</g>
			
		</g>
	</g>
<text
   xml:space="preserve"
   style="font-style:normal;font-variant:normal;font-weight:normal;font-stretch:normal;font-size:25px;line-height:0%;font-family:'Card Characters';-inkscape-font-specification:'Card Characters, Normal';font-variant-ligatures:normal;font-variant-caps:normal;font-variant-numeric:normal;font-feature-settings:normal;text-align:center;letter-spacing:0px;word-spacing:0px;writing-mode:lr-tb;text-anchor:middle;fill:#000000;fill-opacity:1;stroke:none"
   x="17.48336"
   y="24.335196"
   id="text3788"><tspan
     sodipodi:role="line"
     id="tspan3790"
     x="17.48336"
     y="24.335196"
     style="font-style:normal;font-variant:normal;font-weight:normal;font-stretch:normal;font-size:25px;line-height:1.25;font-family:'Card Characters';-inkscape-font-specification:'Card Characters, Normal';font-variant-ligatures:normal;font-variant-caps:normal;font-variant-numeric:normal;font-feature-settings:normal;text-align:center;writing-mode:lr-tb;text-anchor:middle">A</tspan></text>




<g
   transform="matrix(0.20614599,0,0,0.20614599,8.8705463,16.512759)"
   id="g3804"><g
     id="layer1-1"
     transform="matrix(28.969925,0,0,28.969925,-1031.5368,-187.37665)"><path
       style="fill:#000000;fill-opacity:1"
       inkscape:connector-curvature="0"
       d="m 50.291466,22.698228 c 0,0 2.375,-1.9 2.375,-4.534 0,-1.542 -1.369,-4.102 -4.534,-4.102 -3.165,0 -4.534,2.561 -4.534,4.102 0,2.634 2.375,4.534 2.375,4.534 -2.638,-2.055 -7.341,-0.652 -7.341,3.455 0,2.056 1.68,4.318 4.318,4.318 3.165,0 4.534,-3.455 4.534,-3.455 0,0 0.402,3.938 -1.943,6.046 h 5.182 c -2.345,-2.107 -1.943,-6.046 -1.943,-6.046 0,0 1.369,3.455 4.534,3.455 2.639,0 4.318,-2.263 4.318,-4.318 0,-4.107 -4.703,-5.51 -7.341,-3.455 z"
       id="cl" /></g><path
     transform="matrix(1.1091261,0,0,1.2071687,-37.349149,-111.34227)"
     sodipodi:nodetypes="cscsc"
     inkscape:connector-curvature="0"
     id="path3762"
     d="m 117.3013,604.26609 c 0,0 -8.06755,-94.94997 22.85715,-122.85714 34.76052,-31.36871 140,-11.42857 140,-11.42857 0,0 -71.5404,24.83762 -100,48.57143 -27.21033,22.69199 -62.85715,85.71428 -62.85715,85.71428 z"
     style="fill:#010101;fill-opacity:0.53435117;stroke:none;filter:url(#filter3834)" /><path
     transform="matrix(1.1091261,0,0,1.2071687,117.2523,-332.26545)"
     sodipodi:nodetypes="cscsc"
     inkscape:connector-curvature="0"
     id="path3762-6"
     d="m 117.3013,604.26609 c 0,0 -8.06755,-94.94997 22.85715,-122.85714 34.76052,-31.36871 140,-11.42857 140,-11.42857 0,0 -71.5404,24.83762 -100,48.57143 -27.21033,22.69199 -62.85715,85.71428 -62.85715,85.71428 z"
     style="fill:#000000;fill-opacity:0.51908398;stroke:none;filter:url(#filter3834-6)" /><path
     transform="matrix(1.1420384,0.7029084,-0.84188482,1.367838,729.37187,-305.07466)"
     sodipodi:nodetypes="cscsc"
     inkscape:connector-curvature="0"
     id="path3762-7"
     d="m 117.3013,604.26609 c 0,0 -8.06755,-94.94997 22.85715,-122.85714 34.76052,-31.36871 140,-11.42857 140,-11.42857 0,0 -71.5404,24.83762 -100,48.57143 -27.21033,22.69199 -62.85715,85.71428 -62.85715,85.71428 z"
     style="fill:#000000;fill-opacity:0.70229006;stroke:#000000;filter:url(#filter3834-7);stroke-opacity:1" /><path
     id="rect3015"
     d="m 28.355532,122.02522 0,734.28125 667.156248,0 0,-734.28125 -667.156248,0 z m 334.281258,97.625 c 91.68979,0 131.37499,74.17213 131.37499,118.84375 0,76.30678 -68.8125,131.34375 -68.8125,131.34375 76.42266,-59.5332 212.65625,-18.88573 212.65625,100.09375 0,59.5332 -48.64211,125.09375 -125.09375,125.09375 -91.68982,0 -131.34374,-100.09375 -131.34374,-100.09375 0,0 -11.65322,114.11662 56.28124,175.15625 l -150.12499,0 c 67.93447,-61.0686 56.3125,-175.15625 56.3125,-175.15625 0,0 -39.65394,100.09375 -131.34375,100.09375 -76.42266,0 -125.093758,-65.53158 -125.093758,-125.09375 0,-118.97948 136.233598,-159.62695 212.656258,-100.09375 0,0 -68.8125,-55.03697 -68.8125,-131.34375 0,-44.64265 39.65394,-118.84375 131.34375,-118.84375 z"
     style="fill:#fffeff;fill-opacity:1;fill-rule:nonzero;stroke:none"
     inkscape:connector-curvature="0" /></g><g
   transform="matrix(1.4856506,0,0,1.4856506,-54.024661,10.018072)"
   id="layer1-1-4"><path
     id="cl-9"
     d="m 50.291466,22.698228 c 0,0 2.375,-1.9 2.375,-4.534 0,-1.542 -1.369,-4.102 -4.534,-4.102 -3.165,0 -4.534,2.561 -4.534,4.102 0,2.634 2.375,4.534 2.375,4.534 -2.638,-2.055 -7.341,-0.652 -7.341,3.455 0,2.056 1.68,4.318 4.318,4.318 3.165,0 4.534,-3.455 4.534,-3.455 0,0 0.402,3.938 -1.943,6.046 h 5.182 c -2.345,-2.107 -1.943,-6.046 -1.943,-6.046 0,0 1.369,3.455 4.534,3.455 2.639,0 4.318,-2.263 4.318,-4.318 0,-4.107 -4.703,-5.51 -7.341,-3.455 z"
     inkscape:connector-curvature="0"
     style="fill:#000000" /></g><text
   xml:space="preserve"
   style="font-style:normal;font-variant:normal;font-weight:normal;font-stretch:normal;font-size:25px;line-height:0%;font-family:'Card Characters';-inkscape-font-specification:'Card Characters, Normal';font-variant-ligatures:normal;font-variant-caps:normal;font-variant-numeric:normal;font-feature-settings:normal;text-align:center;letter-spacing:0px;word-spacing:0px;writing-mode:lr-tb;text-anchor:middle;fill:#000000;fill-opacity:1;stroke:none"
   x="-149.69113"
   y="-218.07912"
   id="text3788-8"
   transform="scale(-1)"><tspan
     sodipodi:role="line"
     id="tspan3790-8"
     x="-149.69113"
     y="-218.07912"
     style="font-style:normal;font-variant:normal;font-weight:normal;font-stretch:normal;font-size:25px;line-height:1.25;font-family:'Card Characters';-inkscape-font-specification:'Card Characters, Normal';font-variant-ligatures:normal;font-variant-caps:normal;font-variant-numeric:normal;font-feature-settings:normal;text-align:center;writing-mode:lr-tb;text-anchor:middle">A</tspan></text>


<g
   transform="matrix(-1.4856506,0,0,-1.4856506,221.19916,232.46182)"
   id="layer1-1-4-1"><path
     id="cl-9-7"
     d="m 50.291466,22.698228 c 0,0 2.375,-1.9 2.375,-4.534 0,-1.542 -1.369,-4.102 -4.534,-4.102 -3.165,0 -4.534,2.561 -4.534,4.102 0,2.634 2.375,4.534 2.375,4.534 -2.638,-2.055 -7.341,-0.652 -7.341,3.455 0,2.056 1.68,4.318 4.318,4.318 3.165,0 4.534,-3.455 4.534,-3.455 0,0 0.402,3.938 -1.943,6.046 h 5.182 c -2.345,-2.107 -1.943,-6.046 -1.943,-6.046 0,0 1.369,3.455 4.534,3.455 2.639,0 4.318,-2.263 4.318,-4.318 0,-4.107 -4.703,-5.51 -7.341,-3.455 z"
     inkscape:connector-curvature="0"
     style="fill:#000000" /></g></svg>